HIERARCHY
ROOT SpineBase
{
  OFFSET 0.000000 0.000000 0.000000
  CHANNELS 6 Xposition Yposition Zposition Zrotation Xrotation Yrotation
  JOINT SpineMid
  {
    OFFSET 0.000000 24.967567 0.000000
    CHANNELS 3 Zrotation Xrotation Yrotation
    JOINT SpineShoulder
    {
      OFFSET -0.051032 18.630975 -0.606828
      CHANNELS 3 Zrotation Xrotation Yrotation
      JOINT Neck
      {
        OFFSET -0.051109 6.213697 -0.475644
        CHANNELS 3 Zrotation Xrotation Yrotation
        JOINT Head
        {
          OFFSET 2.347814 13.026994 0.316011
          CHANNELS 3 Zrotation Xrotation Yrotation
          End Site
          {
            OFFSET 0 0 0
          }
        }
      }
      JOINT ShoulderLeft
      {
        OFFSET -12.885034 -2.903681 -7.921842
        CHANNELS 3 Zrotation Xrotation Yrotation
        JOINT ElbowLeft
        {
          OFFSET -2.345032 -21.676824 -5.054767
          CHANNELS 3 Zrotation Xrotation Yrotation
          JOINT WristLeft
          {
            OFFSET 8.028152 -15.180287 -12.970495
            CHANNELS 3 Zrotation Xrotation Yrotation
            JOINT HandLeft
            {
              OFFSET 2.632069 -3.664055 -5.368539
              CHANNELS 3 Zrotation Xrotation Yrotation
              JOINT HandTipLeft
              {
                OFFSET 2.358473 -5.907251 -4.651345
                CHANNELS 3 Zrotation Xrotation Yrotation
                End Site
                {
                  OFFSET 0 0 0
                }
              }
              JOINT ThumbLeft
              {
                OFFSET 1.647388 3.158647 -2.938260
                CHANNELS 3 Zrotation Xrotation Yrotation
                End Site
                {
                  OFFSET 0 0 0
                }
              }
            }
          }
        }
      }
      JOINT ShoulderRight
      {
        OFFSET 15.229340 -4.978869 1.667108
        CHANNELS 3 Zrotation Xrotation Yrotation
        JOINT ElbowRight
        {
          OFFSET 8.437621 -24.832980 -1.608995
          CHANNELS 3 Zrotation Xrotation Yrotation
          JOINT WristRight
          {
            OFFSET 6.554738 -14.142115 -19.622057
            CHANNELS 3 Zrotation Xrotation Yrotation
            JOINT HandRight
            {
              OFFSET -0.926111 -3.254471 -3.868689
              CHANNELS 3 Zrotation Xrotation Yrotation
              JOINT HandTipRight
              {
                OFFSET 2.004969 -4.831171 -2.156008
                CHANNELS 3 Zrotation Xrotation Yrotation
                End Site
                {
                  OFFSET 0 0 0
                }
              }
              JOINT ThumbRight
              {
                OFFSET -1.831247 1.765035 -3.906179
                CHANNELS 3 Zrotation Xrotation Yrotation
                End Site
                {
                  OFFSET 0 0 0
                }
              }
            }
          }
        }
      }
    }
  }
  JOINT HipLeft
  {
    OFFSET -6.214165 1.183425 -4.696978
    CHANNELS 3 Zrotation Xrotation Yrotation
    JOINT KneeLeft
    {
      OFFSET 7.838941 -6.210662 -29.155652
      CHANNELS 3 Zrotation Xrotation Yrotation
      JOINT AnkleLeft
      {
        OFFSET 1.258039 -33.948788 1.304688
        CHANNELS 3 Zrotation Xrotation Yrotation
        JOINT FootLeft
        {
          OFFSET 3.475198 -6.835203 -5.746727
          CHANNELS 3 Zrotation Xrotation Yrotation
          End Site
          {
            OFFSET 0 0 0
          }
        }
      }
    }
  }
  JOINT HipRight
  {
    OFFSET 5.910454 0.605064 -1.592789
    CHANNELS 3 Zrotation Xrotation Yrotation
    JOINT KneeRight
    {
      OFFSET 21.211807 -6.099739 -19.948453
      CHANNELS 3 Zrotation Xrotation Yrotation
      JOINT AnkleRight
      {
        OFFSET -2.109214 -30.559004 0.737297
        CHANNELS 3 Zrotation Xrotation Yrotation
        JOINT FootRight
        {
          OFFSET 2.568311 -5.081413 -5.492964
          CHANNELS 3 Zrotation Xrotation Yrotation
          End Site
          {
            OFFSET 0 0 0
          }
        }
      }
    }
  }
}
MOTION
Frames: 13
Frame Time: 0.033333
19.779418 46.287890 376.998138 1.663623 1.692610 -11.368127 -0.413317 -0.027040 11.382201 0.167914 -0.390276 0.081824 11.607298 -5.075013 0.968833 0.000000 0.000000 0.000000 -1.951267 50.020858 -5.135962 -150.729166 -11.637578 -136.676899 59.820714 57.745228 -14.295890 -8.670019 26.337494 25.143723 0.000000 0.000000 0.000000 0.000000 0.000000 0.000000 2.055264 3.291481 1.144935 -5.779116 -8.347126 -0.562916 5.035785 -8.105366 -1.533497 -32.093931 8.587532 19.799477 0.000000 0.000000 0.000000 0.000000 0.000000 0.000000 -1.621652 -3.582654 12.445110 0.949982 3.119146 -1.089482 1.233811 -2.831779 -1.882654 0.000000 0.000000 0.000000 -1.298202 -1.986735 11.321040 -1.181399 -0.574961 0.005248 4.330566 27.070272 7.442713 0.000000 0.000000 0.000000
19.819255 46.213032 376.976027 1.742572 1.697276 -11.327198 -0.401780 -0.051140 11.343120 0.149766 -0.372065 0.083916 12.592733 -5.248880 1.053299 0.000000 0.000000 0.000000 -0.085718 50.144524 -6.366598 -152.354469 -11.144059 -134.964551 61.067656 56.332944 -16.049733 -8.473057 26.544717 25.071198 0.000000 0.000000 0.000000 0.000000 0.000000 0.000000 2.173495 3.209288 1.097402 -5.958301 -8.363756 -0.575229 6.106752 -8.585969 -2.732752 -28.991320 9.595878 18.499763 0.000000 0.000000 0.000000 0.000000 0.000000 0.000000 -1.701667 -3.380674 12.469993 0.831802 2.850157 -1.156912 1.383252 -2.992468 -2.047625 0.000000 0.000000 0.000000 -1.376179 -2.005821 11.277291 -1.013954 -0.645593 0.014372 4.346167 27.673557 7.420283 0.000000 0.000000 0.000000
19.860426 46.126204 376.957236 1.833319 1.689366 -11.229381 -0.364343 -0.074349 11.248898 0.136801 -0.355251 0.088141 13.691875 -5.554184 1.187194 0.000000 0.000000 0.000000 1.570375 50.220457 -7.493757 -153.775625 -10.582158 -133.785611 67.769132 57.613562 -22.052736 -10.301180 23.669184 24.446678 0.000000 0.000000 0.000000 0.000000 0.000000 0.000000 2.217962 3.240011 1.076703 -6.347731 -8.441018 -0.297677 5.131195 -9.276749 -1.247768 -29.941037 8.506695 17.354750 0.000000 0.000000 0.000000 0.000000 0.000000 0.000000 -1.802129 -3.149562 12.459646 0.746620 2.640749 -1.243953 1.460477 -3.482555 -2.312109 0.000000 0.000000 0.000000 -1.470216 -2.013304 11.176514 -1.010914 -0.721287 0.019016 3.942385 25.693524 7.142459 0.000000 0.000000 0.000000
19.882805 46.034407 376.940856 1.899273 1.677319 -11.021865 -0.324524 -0.088048 11.044786 0.112715 -0.328683 0.090300 14.670433 -5.776811 1.296130 0.000000 0.000000 0.000000 3.080833 49.818812 -8.443509 -155.002888 -10.299061 -132.951764 67.614050 57.055819 -21.535596 -9.556180 24.243354 23.895611 0.000000 0.000000 0.000000 0.000000 0.000000 0.000000 2.327095 3.106167 1.011322 -6.984507 -8.193878 0.445725 5.873171 -13.986549 -1.058716 -36.514575 7.121715 20.531520 0.000000 0.000000 0.000000 0.000000 0.000000 0.000000 -1.880854 -2.878269 12.332407 0.738735 2.323647 -1.324634 1.339396 -3.477120 -2.280631 0.000000 0.000000 0.000000 -1.544580 -2.008695 10.966981 -1.022319 -0.736228 0.019566 3.994068 25.701404 7.095967 0.000000 0.000000 0.000000
19.902945 45.946367 376.934779 1.954813 1.654576 -10.715695 -0.296939 -0.094600 10.741435 0.084773 -0.305658 0.091116 15.392146 -5.894304 1.364143 0.000000 0.000000 0.000000 4.292049 49.121548 -9.133805 -156.044686 -10.323568 -132.062947 55.920736 51.492323 -11.216450 -3.868734 31.508166 23.648241 0.000000 0.000000 0.000000 0.000000 0.000000 0.000000 2.492345 2.945906 0.936364 -6.969220 -8.256958 0.106250 6.821257 -8.678048 -3.752785 -29.190861 5.560765 16.538264 0.000000 0.000000 0.000000 0.000000 0.000000 0.000000 -1.954434 -2.589089 12.108919 0.753945 2.011258 -1.406060 1.055570 -3.415631 -2.107336 0.000000 0.000000 0.000000 -1.614114 -1.988350 10.659452 -1.076246 -0.768981 0.019871 4.526198 27.698016 7.252853 0.000000 0.000000 0.000000
19.925128 45.867924 376.935641 2.012803 1.613203 -10.381728 -0.274017 -0.098960 10.410452 0.065118 -0.290615 0.092589 15.864017 -5.915609 1.390519 0.000000 0.000000 0.000000 4.988010 48.249213 -9.466378 -156.729318 -10.480733 -131.507331 46.793608 45.208313 -3.267381 2.552221 38.795756 22.304293 0.000000 0.000000 0.000000 0.000000 0.000000 0.000000 2.510019 2.809890 0.871628 -6.920385 -8.125068 0.010633 6.564087 -5.164841 -4.366956 -25.807578 5.255877 15.265303 0.000000 0.000000 0.000000 0.000000 0.000000 0.000000 -2.037082 -2.310603 11.871769 0.791017 1.758705 -1.499737 0.790453 -3.308664 -1.917438 0.000000 0.000000 0.000000 -1.145312 -1.309627 10.068813 -1.796198 -1.290249 0.274053 4.095654 25.180611 6.940571 0.000000 0.000000 0.000000
19.938717 45.790190 376.938670 2.062505 1.572560 -10.085226 -0.235370 -0.110332 10.117600 0.054514 -0.283053 0.095187 16.095185 -5.851306 1.376740 0.000000 0.000000 0.000000 5.062905 47.229982 -9.394290 -157.010919 -10.716059 -131.218262 41.019374 39.914628 1.782956 8.532636 44.582530 20.204655 0.000000 0.000000 0.000000 0.000000 0.000000 0.000000 2.370470 2.704460 0.820474 -6.713769 -7.903212 -0.064107 4.748939 -1.851056 -2.907913 -23.910696 5.405314 14.195625 0.000000 0.000000 0.000000 0.000000 0.000000 0.000000 -2.102880 -2.032137 11.651014 0.835858 1.505176 -1.570928 0.511357 -3.327124 -1.792984 0.000000 0.000000 0.000000 -1.022325 -1.049299 9.707415 -2.135182 -1.471122 0.329881 3.786695 23.062445 6.660698 0.000000 0.000000 0.000000
20.002811 45.712974 376.965721 2.192716 1.505116 -9.723870 -0.273643 -0.097353 9.758130 0.001329 -0.247337 0.094127 16.087923 -5.851686 1.375148 0.000000 0.000000 0.000000 5.771457 46.584707 -9.746194 -157.695125 -10.753124 -130.754710 38.033821 36.234459 4.493596 13.204243 48.090395 17.775241 0.000000 0.000000 0.000000 0.000000 0.000000 0.000000 2.317836 2.501466 0.752230 -6.616997 -7.683951 -0.063868 2.677847 1.898568 -1.245208 -22.533576 5.481880 13.597079 0.000000 0.000000 0.000000 0.000000 0.000000 0.000000 -2.275177 -1.719640 11.481795 0.883028 1.264192 -1.759164 0.386199 -3.397114 -1.782950 0.000000 0.000000 0.000000 -1.092735 -0.875290 9.407942 -2.381224 -1.656392 0.260132 3.625026 21.539539 6.414697 0.000000 0.000000 0.000000
19.994469 45.671075 376.959727 2.173672 1.510090 -9.419511 -0.239901 -0.096732 9.454974 -0.034362 -0.217694 0.091287 16.274993 -5.993610 1.432487 0.000000 0.000000 0.000000 6.643842 46.273595 -10.209119 -158.397000 -10.622791 -130.437563 37.716039 35.531260 5.409094 14.911205 48.622987 16.240327 0.000000 0.000000 0.000000 0.000000 0.000000 0.000000 2.302114 2.330777 0.715646 -6.525332 -7.481113 -0.032838 -0.651622 5.304224 1.994606 -19.724993 4.741628 10.869298 0.000000 0.000000 0.000000 0.000000 0.000000 0.000000 -2.261700 -1.631582 11.195342 0.906242 1.224839 -1.772879 0.321106 -3.448330 -1.772844 0.000000 0.000000 0.000000 -0.979059 -0.780927 9.000732 -2.569431 -1.781351 0.360541 3.579234 20.572078 6.176044 0.000000 0.000000 0.000000
19.929938 45.663860 376.930278 2.064870 1.579657 -9.209443 -0.162163 -0.109012 9.245440 -0.042386 -0.193835 0.089044 16.158224 -6.112250 1.467686 0.000000 0.000000 0.000000 7.499162 46.099447 -10.671673 -159.026350 -10.586738 -130.082151 40.247987 38.230941 4.206763 12.616050 45.925399 16.436769 0.000000 0.000000 0.000000 0.000000 0.000000 0.000000 2.271077 2.181248 0.703498 -6.447674 -7.278261 0.064014 -6.991993 10.167461 8.312085 -18.176108 2.175933 6.791243 0.000000 0.000000 0.000000 0.000000 0.000000 0.000000 -2.127885 -1.737358 10.858025 0.905894 1.334384 -1.643347 0.454042 -3.647376 -1.969910 0.000000 0.000000 0.000000 -0.900388 -0.918584 8.675527 -2.472436 -1.715703 0.483578 3.797068 22.647013 6.643800 0.000000 0.000000 0.000000
19.782115 45.702431 376.871366 1.848435 1.695093 -9.017351 -0.041242 -0.133821 9.053585 -0.031246 -0.180206 0.085744 15.848494 -6.206094 1.486152 0.000000 0.000000 0.000000 8.333148 46.220947 -11.143640 -159.524817 -10.595481 -129.743887 45.567799 43.346060 0.363546 7.316788 40.675469 17.862381 0.000000 0.000000 0.000000 0.000000 0.000000 0.000000 2.247865 2.142120 0.737247 -6.358882 -7.064349 0.203771 -12.979312 12.472604 14.488518 -15.924038 0.208448 2.045013 0.000000 0.000000 0.000000 0.000000 0.000000 0.000000 -1.847619 -1.997039 10.324691 0.847778 1.613001 -1.298129 0.634090 -3.786553 -2.118499 0.000000 0.000000 0.000000 -0.817201 -1.248299 8.299110 -2.098971 -1.492041 0.687450 3.207127 19.996928 6.108608 0.000000 0.000000 0.000000
19.632192 45.744223 376.811226 1.634387 1.815091 -8.938675 0.058489 -0.153394 8.974581 -0.020449 -0.167929 0.081720 15.389384 -6.298175 1.495794 0.000000 0.000000 0.000000 9.145402 46.698202 -11.661300 -159.864529 -10.554196 -129.607325 53.425435 49.199561 -6.152342 1.025124 34.064247 19.282363 0.000000 0.000000 0.000000 0.000000 0.000000 0.000000 2.303280 2.246334 0.815621 -6.410720 -7.043897 0.353008 -15.928870 11.324291 17.981088 -14.537481 1.664777 0.108584 0.000000 0.000000 0.000000 0.000000 0.000000 0.000000 -1.576649 -2.272090 9.947966 0.831151 1.877873 -0.995197 0.815291 -3.771768 -2.222615 0.000000 0.000000 0.000000 -0.759060 -1.610971 8.044283 -1.703726 -1.269208 0.881891 2.802793 18.624567 5.820025 0.000000 0.000000 0.000000
19.482221 45.799560 376.751457 1.433118 1.930063 -8.979917 0.132934 -0.166621 9.014967 -0.011582 -0.154363 0.077054 14.694064 -6.173327 1.420005 0.000000 0.000000 0.000000 10.009500 47.321432 -12.236743 -160.196585 -10.437244 -129.488208 63.935330 54.361800 -15.607051 -5.125872 27.094589 20.159112 0.000000 0.000000 0.000000 0.000000 0.000000 0.000000 2.242789 2.183134 0.856386 -6.394879 -6.934729 0.626644 -15.409877 6.675099 18.536058 -17.306467 3.257149 -0.703309 0.000000 0.000000 0.000000 0.000000 0.000000 0.000000 -1.310747 -2.597560 9.644006 0.773096 2.195128 -0.645368 0.949216 -3.625556 -2.185320 0.000000 0.000000 0.000000 -0.652001 -1.910825 7.866873 -1.380837 -0.995977 1.109944 2.636944 18.561167 5.813467 0.000000 0.000000 0.000000
